<svg width="48" height="43" viewBox="0 0 48 43" fill="none" xmlns="http://www.w3.org/2000/svg">
<path d="M27.0309 2.34534L47.1769 37.238C47.4841 37.7701 47.6458 38.3736 47.6458 38.988C47.6458 39.6023 47.4841 40.2059 47.1769 40.738C46.8698 41.27 46.4279 41.7119 45.8959 42.0191C45.3638 42.3263 44.7603 42.488 44.1459 42.488H3.85391C3.23954 42.488 2.636 42.3263 2.10395 42.0191C1.57189 41.7119 1.13007 41.27 0.822893 40.738C0.515714 40.2059 0.354 39.6023 0.354004 38.988C0.354008 38.3736 0.515729 37.7701 0.822915 37.238L20.9689 2.34534C22.3152 0.0120036 25.6822 0.0120036 27.0309 2.34534ZM23.9999 30C23.3811 30 22.7876 30.2458 22.35 30.6834C21.9124 31.121 21.6666 31.7145 21.6666 32.3333C21.6666 32.9522 21.9124 33.5457 22.35 33.9833C22.7876 34.4208 23.3811 34.6667 23.9999 34.6667C24.6188 34.6667 25.2122 34.4208 25.6498 33.9833C26.0874 33.5457 26.3332 32.9522 26.3332 32.3333C26.3332 31.7145 26.0874 31.121 25.6498 30.6834C25.2122 30.2458 24.6188 30 23.9999 30ZM23.9999 13.6667C23.4284 13.6667 22.8768 13.8766 22.4497 14.2563C22.0226 14.6361 21.7498 15.1594 21.6829 15.727L21.6666 16V25.3333C21.6672 25.9281 21.895 26.5001 22.3032 26.9325C22.7115 27.365 23.2695 27.6252 23.8632 27.6601C24.4569 27.6949 25.0415 27.5018 25.4975 27.1201C25.9536 26.7383 26.2467 26.1969 26.3169 25.6063L26.3332 25.3333V16C26.3332 15.3812 26.0874 14.7877 25.6498 14.3501C25.2122 13.9125 24.6188 13.6667 23.9999 13.6667Z" fill="black"/>
</svg>
