<svg width="44" height="44" viewBox="0 0 44 44" fill="none" xmlns="http://www.w3.org/2000/svg">
<path d="M22.0001 42.25C26.4931 42.2493 30.8584 40.7544 34.4086 38.0006C37.9588 35.2467 40.4923 31.3903 41.6102 27.0386C42.7282 22.6868 42.3671 18.0869 40.5838 13.9629C38.8006 9.83885 35.6964 6.42503 31.76 4.25884C27.8236 2.09266 23.2786 1.29715 18.8404 1.99755C14.4023 2.69795 10.3231 4.85448 7.24515 8.12763C4.16716 11.4008 2.26515 15.6047 1.83857 20.0774C1.41199 24.5502 2.48506 29.0378 4.88884 32.8338L1.75009 42.25L11.1663 39.1112C14.4054 41.167 18.1638 42.2559 22.0001 42.25Z" fill="black" stroke="black" stroke-width="2" stroke-linecap="round" stroke-linejoin="round"/>
</svg>
