<svg width="34" height="34" viewBox="0 0 34 34" fill="none" xmlns="http://www.w3.org/2000/svg">
<path fill-rule="evenodd" clip-rule="evenodd" d="M2.77325 31.2267C5.21659 33.6667 9.14325 33.6667 16.9999 33.6667C24.8566 33.6667 28.7849 33.6667 31.2249 31.225C33.6666 28.7867 33.6666 24.8567 33.6666 17C33.6666 9.14333 33.6666 5.21499 31.2249 2.77333C28.7866 0.333328 24.8566 0.333328 16.9999 0.333328C9.14325 0.333328 5.21492 0.333328 2.77325 2.77333C0.333252 5.21666 0.333252 9.14333 0.333252 17C0.333252 24.8567 0.333252 28.7867 2.77325 31.2267ZM21.5833 23.6667C21.5833 23.9982 21.4516 24.3161 21.2171 24.5505C20.9827 24.785 20.6648 24.9167 20.3333 24.9167H13.6666C13.3351 24.9167 13.0171 24.785 12.7827 24.5505C12.5483 24.3161 12.4166 23.9982 12.4166 23.6667C12.4166 23.3351 12.5483 23.0172 12.7827 22.7828C13.0171 22.5484 13.3351 22.4167 13.6666 22.4167H20.3333C20.6648 22.4167 20.9827 22.5484 21.2171 22.7828C21.4516 23.0172 21.5833 23.3351 21.5833 23.6667ZM23.6666 18.25C23.9981 18.25 24.316 18.1183 24.5505 17.8839C24.7849 17.6495 24.9166 17.3315 24.9166 17C24.9166 16.6685 24.7849 16.3505 24.5505 16.1161C24.316 15.8817 23.9981 15.75 23.6666 15.75H10.3333C10.0017 15.75 9.68379 15.8817 9.44937 16.1161C9.21495 16.3505 9.08325 16.6685 9.08325 17C9.08325 17.3315 9.21495 17.6495 9.44937 17.8839C9.68379 18.1183 10.0017 18.25 10.3333 18.25H23.6666ZM28.2499 10.3333C28.2499 10.6648 28.1182 10.9828 27.8838 11.2172C27.6494 11.4516 27.3314 11.5833 26.9999 11.5833H6.99992C6.6684 11.5833 6.35046 11.4516 6.11603 11.2172C5.88161 10.9828 5.74992 10.6648 5.74992 10.3333C5.74992 10.0018 5.88161 9.68386 6.11603 9.44944C6.35046 9.21502 6.6684 9.08333 6.99992 9.08333H26.9999C27.3314 9.08333 27.6494 9.21502 27.8838 9.44944C28.1182 9.68386 28.2499 10.0018 28.2499 10.3333Z" fill="black"/>
</svg>
