<svg width="54" height="54" viewBox="0 0 54 54" fill="none" xmlns="http://www.w3.org/2000/svg">
<path d="M25.5335 11.3867C25.021 12.129 24.3286 12.7293 23.5211 13.1312C22.7136 13.5332 21.8173 13.7238 20.916 13.6852C20.0148 13.6466 19.1381 13.38 18.3679 12.9104C17.5977 12.4408 16.9592 11.7835 16.5122 11H11.0002C9.58567 11 8.22912 11.5619 7.22893 12.5621C6.22873 13.5623 5.66683 14.9188 5.66683 16.3333V24.3333C5.66683 25.0406 5.38588 25.7189 4.88578 26.219C4.38568 26.7191 3.70741 27 3.00016 27C2.29292 27 1.61464 26.7191 1.11454 26.219C0.614448 25.7189 0.333496 25.0406 0.333496 24.3333V16.3333C0.333496 13.5044 1.4573 10.7913 3.45769 8.79086C5.45808 6.79047 8.17119 5.66667 11.0002 5.66667H16.5388C16.9928 4.88868 17.6364 4.23835 18.4097 3.77634C19.1829 3.31433 20.0606 3.05568 20.9608 3.02453C21.861 2.99338 22.7544 3.19073 23.5578 3.59819C24.3611 4.00565 25.0482 4.60993 25.5548 5.35467C25.64 4.68398 25.9767 4.07067 26.4968 3.6388C27.017 3.20693 27.6817 2.98875 28.3566 3.02839C29.0315 3.06803 29.6662 3.36253 30.1322 3.85233C30.5982 4.34212 30.8608 4.99063 30.8668 5.66667H34.3628L50.2588 0.429335L50.2668 0.434668C50.6516 0.324798 51.0562 0.302947 51.4507 0.370735C51.8451 0.438523 52.2192 0.594212 52.5452 0.826261C52.8712 1.05831 53.1409 1.36077 53.3341 1.71121C53.5274 2.06165 53.6393 2.4511 53.6615 2.85067L53.6668 2.85333V13.4987L53.6615 13.5013L53.6668 13.6667C53.6671 14.0796 53.5714 14.487 53.3873 14.8566C53.2033 15.2263 52.9359 15.5482 52.6063 15.7969C52.2767 16.0456 51.8938 16.2143 51.4878 16.2899C51.0818 16.3654 50.6638 16.3456 50.2668 16.232L50.2588 16.2373L34.7122 11H30.8668V13.6907C30.8668 13.7707 30.8642 13.8507 30.8562 13.9307C33.5395 14.5087 35.9438 15.9887 37.6683 18.1243C39.3928 20.2598 40.3335 22.9218 40.3335 25.6667V45.6667C40.3335 47.7884 39.4906 49.8232 37.9903 51.3235C36.4901 52.8238 34.4552 53.6667 32.3335 53.6667H24.3335C22.2118 53.6667 20.1769 52.8238 18.6766 51.3235C17.1763 49.8232 16.3335 47.7884 16.3335 45.6667V25.6667C16.3341 22.9677 17.2442 20.3477 18.9168 18.2295C20.5894 16.1113 22.9269 14.6185 25.5522 13.992C25.5403 13.892 25.5341 13.7914 25.5335 13.6907V11.3867Z" fill="#D9961A"/>
</svg>
