<svg width="43" height="43" viewBox="0 0 43 43" fill="none" xmlns="http://www.w3.org/2000/svg">
<path d="M11.3645 8.84725C11.5311 9.01365 11.6632 9.21125 11.7534 9.42875C11.8436 9.64626 11.89 9.8794 11.89 10.1149C11.89 10.3503 11.8436 10.5834 11.7534 10.801C11.6632 11.0185 11.5311 11.2161 11.3645 11.3825C8.67599 14.0714 7.16564 17.7182 7.16564 21.5206C7.16564 25.323 8.67599 28.9698 11.3645 31.6588C11.5356 31.824 11.6721 32.0217 11.766 32.2403C11.8599 32.4589 11.9093 32.694 11.9114 32.9319C11.9135 33.1698 11.8681 33.4057 11.7781 33.6259C11.688 33.8461 11.5549 34.0462 11.3867 34.2144C11.2185 34.3826 11.0184 34.5156 10.7983 34.6057C10.5781 34.6958 10.3421 34.7411 10.1042 34.7391C9.86635 34.737 9.63124 34.6876 9.41265 34.5937C9.19406 34.4998 8.99636 34.3633 8.83109 34.1922C1.83104 27.1939 1.83104 15.8455 8.83109 8.84725C9.16707 8.51136 9.62271 8.32267 10.0978 8.32267C10.5729 8.32267 11.0285 8.51136 11.3645 8.84725ZM34.176 8.84725C41.1743 15.8473 41.1743 27.1939 34.176 34.1922C33.8401 34.5284 33.3843 34.7173 32.909 34.7175C32.4338 34.7177 31.9779 34.529 31.6417 34.1931C31.3055 33.8571 31.1165 33.4014 31.1164 32.9261C31.1162 32.4508 31.3048 31.9949 31.6408 31.6588C34.3293 28.9698 35.8397 25.323 35.8397 21.5206C35.8397 17.7182 34.3293 14.0714 31.6408 11.3825C31.3046 11.0463 31.1157 10.5903 31.1157 10.1149C31.1157 9.63941 31.3046 9.18344 31.6408 8.84725C31.977 8.51106 32.433 8.32219 32.9084 8.32219C33.3838 8.32219 33.8398 8.51106 34.176 8.84725ZM16.6804 13.9965C17.0163 14.3325 17.205 14.7881 17.205 15.2632C17.205 15.7383 17.0163 16.1939 16.6804 16.5299C16.0281 17.1821 15.5107 17.9564 15.1577 18.8085C14.8047 19.6607 14.623 20.574 14.623 21.4964C14.623 22.4188 14.8047 23.3321 15.1577 24.1843C15.5107 25.0365 16.0281 25.8107 16.6804 26.4629C16.8467 26.6294 16.9787 26.827 17.0686 27.0444C17.1586 27.2619 17.2049 27.4949 17.2048 27.7303C17.2047 27.9656 17.1583 28.1986 17.0682 28.416C16.978 28.6334 16.8459 28.8309 16.6795 28.9972C16.513 29.1636 16.3154 29.2955 16.098 29.3855C15.8805 29.4755 15.6475 29.5217 15.4121 29.5217C15.1768 29.5216 14.9438 29.4751 14.7264 29.385C14.509 29.2949 14.3115 29.1628 14.1452 28.9963C12.1561 27.0072 11.0387 24.3094 11.0387 21.4964C11.0387 18.6834 12.1561 15.9856 14.1452 13.9965C14.3116 13.8299 14.5092 13.6978 14.7267 13.6076C14.9442 13.5174 15.1773 13.471 15.4128 13.471C15.6482 13.471 15.8814 13.5174 16.0989 13.6076C16.3164 13.6978 16.514 13.8299 16.6804 13.9965ZM29.1468 13.9965C31.1359 15.9856 32.2533 18.6834 32.2533 21.4964C32.2533 24.3094 31.1359 27.0072 29.1468 28.9963C28.8089 29.3227 28.3563 29.5033 27.8865 29.4992C27.4168 29.4951 26.9674 29.3067 26.6352 28.9745C26.303 28.6423 26.1146 28.1929 26.1105 27.7232C26.1064 27.2534 26.287 26.8008 26.6134 26.4629C27.2656 25.8107 27.783 25.0365 28.136 24.1843C28.489 23.3321 28.6707 22.4188 28.6707 21.4964C28.6707 20.574 28.489 19.6607 28.136 18.8085C27.783 17.9564 27.2656 17.1821 26.6134 16.5299C26.287 16.192 26.1064 15.7394 26.1105 15.2697C26.1146 14.7999 26.303 14.3505 26.6352 14.0183C26.9674 13.6861 27.4168 13.4977 27.8865 13.4936C28.3563 13.4895 28.8089 13.6701 29.1468 13.9965ZM21.6469 18.9594C22.3596 18.9594 23.0432 19.2426 23.5472 19.7466C24.0512 20.2506 24.3344 20.9341 24.3344 21.6469C24.3344 22.3597 24.0512 23.0433 23.5472 23.5473C23.0432 24.0513 22.3596 24.3344 21.6469 24.3344C20.9341 24.3344 20.2505 24.0513 19.7465 23.5473C19.2425 23.0433 18.9594 22.3597 18.9594 21.6469C18.9594 20.9341 19.2425 20.2506 19.7465 19.7466C20.2505 19.2426 20.9341 18.9594 21.6469 18.9594Z" fill="black"/>
</svg>
