<svg width="36" height="36" viewBox="0 0 36 36" fill="none" xmlns="http://www.w3.org/2000/svg">
<path d="M4.5 25.5C4.5 26.2956 4.81607 27.0587 5.37868 27.6213C5.94129 28.1839 6.70435 28.5 7.5 28.5C8.29565 28.5 9.05871 28.1839 9.62132 27.6213C10.1839 27.0587 10.5 26.2956 10.5 25.5C10.5 24.7044 10.1839 23.9413 9.62132 23.3787C9.05871 22.8161 8.29565 22.5 7.5 22.5C6.70435 22.5 5.94129 22.8161 5.37868 23.3787C4.81607 23.9413 4.5 24.7044 4.5 25.5ZM22.5 25.5C22.5 26.2956 22.8161 27.0587 23.3787 27.6213C23.9413 28.1839 24.7044 28.5 25.5 28.5C26.2956 28.5 27.0587 28.1839 27.6213 27.6213C28.1839 27.0587 28.5 26.2956 28.5 25.5C28.5 24.7044 28.1839 23.9413 27.6213 23.3787C27.0587 22.8161 26.2956 22.5 25.5 22.5C24.7044 22.5 23.9413 22.8161 23.3787 23.3787C22.8161 23.9413 22.5 24.7044 22.5 25.5Z" stroke="black" stroke-width="3" stroke-linecap="round" stroke-linejoin="round"/>
<path d="M10.5 27H22.5M28.5 27H31.5V18M31.5 18C31.5 16.0109 30.7098 14.1032 29.3033 12.6967C27.8968 11.2902 25.9891 10.5 24 10.5H22.5M31.5 18H24.75L22.5 10.5M22.5 10.5H18V27M4.5 25.5V18H18M4.5 13.5L31.5 4.5M9 18V12" stroke="black" stroke-width="3" stroke-linecap="round" stroke-linejoin="round"/>
</svg>
